<?xml version="1.0" encoding="utf-8"?>
<!-- Generator: Adobe Illustrator 19.2.1, SVG Export Plug-In . SVG Version: 6.00 Build 0)  -->
<svg version="1.1" id="Шар_1" xmlns="http://www.w3.org/2000/svg" xmlns:xlink="http://www.w3.org/1999/xlink" x="0px" y="0px"
	 viewBox="0 0 10.4 19.9" style="enable-background:new 0 0 10.4 19.9;" xml:space="preserve">
<style type="text/css">
	.st0{fill:#fff;}
</style>
<g>
	<path class="st0" d="M9.9,18.7H0.5C0.3,18.7,0,19,0,19.3c0,0.3,0.3,0.5,0.5,0.5h9.3c0.3,0,0.6-0.3,0.6-0.5
		C10.4,19,10.2,18.7,9.9,18.7z"/>
	<path class="st0" d="M0.4,6.2L0.4,6.2l4.5,11.3c0.1,0.2,0.3,0.3,0.5,0.3c0.2,0,0.4-0.1,0.5-0.3l4.4-11.2c0-0.1,0.1-0.1,0.1-0.2V0.8
		c0-0.3-0.2-0.5-0.5-0.5c-0.3,0-0.5,0.2-0.5,0.5v4.6H5.9v-3c0-0.3-0.2-0.5-0.5-0.5c-0.3,0-0.5,0.2-0.5,0.5v3H1.4V0.8
		c0-0.3-0.2-0.5-0.5-0.5c-0.3,0-0.5,0.2-0.5,0.5V6C0.3,6,0.3,6.1,0.4,6.2C0.4,6.1,0.4,6.2,0.4,6.2z M9,6.5L6.8,12h-3L1.6,6.5H9z"/>
</g>
</svg>
