<?xml version="1.0" encoding="utf-8"?>
<!-- Generator: Adobe Illustrator 19.2.1, SVG Export Plug-In . SVG Version: 6.00 Build 0)  -->
<svg version="1.1" id="Шар_1" xmlns="http://www.w3.org/2000/svg" xmlns:xlink="http://www.w3.org/1999/xlink" x="0px" y="0px"
	 viewBox="0 0 16.5 16.6" style="enable-background:new 0 0 16.5 16.6;" xml:space="preserve">
<style type="text/css">
	.st0{fill:#fff;}
</style>
<g>
	<path class="st0" d="M16.1,13.9l-3.8-3.8c-0.6,0.9-1.3,1.6-2.2,2.2l3.8,3.8c0.6,0.6,1.6,0.6,2.2,0C16.7,15.5,16.7,14.6,16.1,13.9z"
		/>
	<path class="st0" d="M12.4,6.2C12.4,2.8,9.7,0,6.2,0C2.8,0,0,2.7,0,6.2c0,3.4,2.7,6.2,6.2,6.2C9.6,12.4,12.4,9.7,12.4,6.2z
		 M6.2,10.9c-2.6,0-4.6-2.1-4.6-4.7c0-2.6,2.1-4.6,4.7-4.6c2.6,0,4.6,2.1,4.6,4.7C10.8,8.8,8.8,10.9,6.2,10.9z"/>
	<path class="st0" d="M2.6,6.2l1,0c0-1.4,1.2-2.6,2.6-2.6l0-1C4.2,2.6,2.6,4.2,2.6,6.2z"/>
</g>
</svg>
