<?xml version="1.0" encoding="utf-8"?>
<!-- Generator: Adobe Illustrator 19.2.1, SVG Export Plug-In . SVG Version: 6.00 Build 0)  -->
<svg version="1.1" id="Шар_1" xmlns="http://www.w3.org/2000/svg" xmlns:xlink="http://www.w3.org/1999/xlink" x="0px" y="0px"
	 viewBox="0 0 18 18.2" style="enable-background:new 0 0 18 18.2;" xml:space="preserve">
<style type="text/css">
	.st0{fill:#fff;}
</style>
<g>
	<path class="st0" d="M17.5,12.8l-1.6-1.6c-0.5-0.5-1.4-0.5-1.8,0c-1.1,1.2-1.5,1.3-1.6,1.4c-0.2,0-0.4,0-0.6,0
		c-1.5,0-3.5-1.1-4.9-2.9c-1.2-1.4-1.8-3-1.5-4.2c0-0.1,0.2-0.5,1.4-1.6C7,3.7,7.2,3.4,7.2,3c0-0.3-0.2-0.7-0.4-0.9L5.2,0.5
		C4.8,0.1,4.1,0,3.6,0.3C1.9,1.5,0,3.1,0,4.2C0,9.1,8.9,18,13.7,18c1.2,0,2.8-1.9,3.9-3.6C18,13.9,17.9,13.2,17.5,12.8z M17.1,14
		c-1.4,2-2.7,3.2-3.3,3.2c-4.5,0-13-8.5-13-13C0.8,3.6,2,2.3,4,0.9C4.2,0.8,4.4,0.8,4.6,1l1.6,1.6c0.2,0.2,0.1,0.6,0,0.8
		c-1.3,1.2-1.5,1.7-1.6,2C4.4,6.9,5,8.6,6.3,10.3c1.6,1.9,3.7,3.2,5.5,3.2c0.3,0,0.5,0,0.7-0.1c0.3-0.1,0.8-0.3,2-1.6
		c0.2-0.2,0.6-0.2,0.8,0l1.7,1.7C17.2,13.5,17.2,13.8,17.1,14z"/>
	<path class="st0" d="M14.5,3.6c1.3,1.3,1.8,3,1.5,4.8l0.7,0.1c0.3-2-0.3-4-1.7-5.4C13.6,1.6,11.5,1,9.4,1.5l0.2,0.7
		C11.3,1.8,13.2,2.3,14.5,3.6z"/>
	<path class="st0" d="M14,8.1c0.2-1.1-0.2-2.2-1-3c-0.8-0.8-2-1.2-3.2-0.9L10,4.9c0.9-0.2,1.9,0.1,2.5,0.7c0.6,0.6,0.9,1.5,0.8,2.4
		L14,8.1z"/>
</g>
</svg>
