<?xml version="1.0" encoding="utf-8"?>
<!-- Generator: Adobe Illustrator 19.2.1, SVG Export Plug-In . SVG Version: 6.00 Build 0)  -->
<svg version="1.1" id="Шар_1" xmlns="http://www.w3.org/2000/svg" xmlns:xlink="http://www.w3.org/1999/xlink" x="0px" y="0px"
	 viewBox="0 0 11.5 16" style="enable-background:new 0 0 11.5 16;" xml:space="preserve">
<style type="text/css">
	.st0{fill:#9AB121;}
</style>
<path class="st0" d="M9.1,0H2.3C1,0,0,1,0,2.3v11.4C0,15,1,16,2.3,16h6.8c1.3,0,2.3-1,2.3-2.3V2.3C11.5,1,10.4,0,9.1,0z M3.6,1h4.3
	v0.8H3.6V1z M5.7,15.2c-0.4,0-0.7-0.3-0.7-0.7c0-0.4,0.3-0.7,0.7-0.7c0.4,0,0.7,0.3,0.7,0.7C6.4,14.9,6.1,15.2,5.7,15.2z M10.5,13.1
	H1V2.8h9.5V13.1z"/>
</svg>
