<?xml version="1.0" encoding="utf-8"?>
<!-- Generator: Adobe Illustrator 19.2.1, SVG Export Plug-In . SVG Version: 6.00 Build 0)  -->
<svg version="1.1" id="Шар_1" xmlns="http://www.w3.org/2000/svg" xmlns:xlink="http://www.w3.org/1999/xlink" x="0px" y="0px"
	 viewBox="0 0 16 16" style="enable-background:new 0 0 16 16;" xml:space="preserve">
<style type="text/css">
	.st0{fill:#9AB121;}
</style>
<g>
	<path class="st0" d="M8,0C3.6,0,0,3.6,0,8c0,4.4,3.6,8,8,8c4.4,0,8-3.6,8-8C16,3.6,12.4,0,8,0z M8,14.3c-3.5,0-6.3-2.9-6.3-6.3
		S4.6,1.7,8,1.7c3.5,0,6.3,2.9,6.3,6.3C14.3,11.5,11.4,14.3,8,14.3z"/>
	<path class="st0" d="M12.2,7.8l-3.6,0l0-4.3c0-0.4-0.3-0.7-0.7-0.7c-0.4,0-0.7,0.3-0.7,0.7l0,5c0,0.4,0.3,0.7,0.7,0.7l4.3,0
		c0.4,0,0.7-0.3,0.7-0.7C12.8,8.1,12.5,7.8,12.2,7.8z"/>
</g>
</svg>
